<svg width="13" height="11" viewBox="0 0 13 11" fill="none" xmlns="http://www.w3.org/2000/svg">
<path d="M12 1.00503C11.5212 1.34277 10.9911 1.60108 10.43 1.77003C10.1289 1.42378 9.72867 1.17837 9.28352 1.06699C8.83837 0.955608 8.36975 0.983626 7.94104 1.14725C7.51233 1.31088 7.14422 1.60223 6.88649 1.98189C6.62876 2.36154 6.49385 2.8112 6.5 3.27003V3.77003C5.62132 3.79281 4.75064 3.59793 3.9655 3.20275C3.18037 2.80757 2.50516 2.22435 2 1.50503C2 1.50503 0 6.00503 4.5 8.00503C3.47026 8.70401 2.24358 9.05449 1 9.00503C5.5 11.505 11 9.00503 11 3.25503C10.9995 3.11575 10.9861 2.97683 10.96 2.84003C11.4703 2.33677 11.8304 1.70138 12 1.00503V1.00503Z" stroke="white" stroke-linecap="round" stroke-linejoin="round"/>
</svg>
