<svg width="12" height="11" viewBox="0 0 12 11" fill="none" xmlns="http://www.w3.org/2000/svg">
<path d="M8 4C8.79565 4 9.55871 4.31607 10.1213 4.87868C10.6839 5.44129 11 6.20435 11 7V10.5H9V7C9 6.73478 8.89464 6.48043 8.70711 6.29289C8.51957 6.10536 8.26522 6 8 6C7.73478 6 7.48043 6.10536 7.29289 6.29289C7.10536 6.48043 7 6.73478 7 7V10.5H5V7C5 6.20435 5.31607 5.44129 5.87868 4.87868C6.44129 4.31607 7.20435 4 8 4Z" stroke="white" stroke-linecap="round" stroke-linejoin="round"/>
<path d="M3 4.5H1V10.5H3V4.5Z" stroke="white" stroke-linecap="round" stroke-linejoin="round"/>
<path d="M2.00049 3C2.55277 3 3.00049 2.55228 3.00049 2C3.00049 1.44772 2.55277 1 2.00049 1C1.4482 1 1.00049 1.44772 1.00049 2C1.00049 2.55228 1.4482 3 2.00049 3Z" stroke="white" stroke-linecap="round" stroke-linejoin="round"/>
</svg>
