<svg width="15" height="17" viewBox="0 0 15 17" fill="none" xmlns="http://www.w3.org/2000/svg">
<path d="M10 0H5V1.61905H10V0ZM6.66667 10.5238H8.33333V5.66667H6.66667V10.5238ZM13.3583 5.17286L14.5417 4.02333C14.1833 3.61048 13.7917 3.2219 13.3667 2.8819L12.1833 4.03143C10.8917 3.02762 9.26667 2.42857 7.5 2.42857C3.35833 2.42857 0 5.69095 0 9.71429C0 13.7376 3.35 17 7.5 17C11.65 17 15 13.7376 15 9.71429C15 7.9981 14.3833 6.41952 13.3583 5.17286ZM7.5 15.381C4.275 15.381 1.66667 12.8471 1.66667 9.71429C1.66667 6.58143 4.275 4.04762 7.5 4.04762C10.725 4.04762 13.3333 6.58143 13.3333 9.71429C13.3333 12.8471 10.725 15.381 7.5 15.381Z" fill="white"/>
</svg>
