<svg width="130" height="77" viewBox="0 0 130 77" fill="none" xmlns="http://www.w3.org/2000/svg">
<path d="M22.196 45.3V67H18.166V57.7H6.944V67H2.914V45.3H6.944V54.259H18.166V45.3H22.196ZM44.2857 63.621V67H28.0107V45.3H43.8517V48.679H32.0407V54.321H42.5187V57.638H32.0407V63.621H44.2857ZM62.8523 61.978H52.0023L49.8633 67H45.7093L55.4743 45.3H59.4423L69.2383 67H65.0223L62.8523 61.978ZM61.5193 58.816L57.4273 49.33L53.3663 58.816H61.5193ZM71.998 45.3H76.028V63.59H87.374V67H71.998V45.3ZM92.9293 48.71H85.7373V45.3H104.151V48.71H96.9593V67H92.9293V48.71ZM126.458 45.3V67H122.428V57.7H111.206V67H107.176V45.3H111.206V54.259H122.428V45.3H126.458Z" fill="white"/>
<path d="M68.8173 7.59402C68.8173 7.19538 68.4785 6.87646 68.0998 6.87646H64.1732C63.7746 6.87646 63.4557 7.21531 63.4557 7.59402V14.1117H56.8184C56.4197 14.1117 56.1008 14.4506 56.1008 14.8293V18.6761C56.1008 19.0747 56.4397 19.3936 56.8184 19.3936H63.4557V25.9113C63.4557 26.31 63.7945 26.6289 64.1732 26.6289H68.0998C68.2991 26.6289 68.4785 26.5492 68.5981 26.4296C68.7376 26.31 68.8173 26.1107 68.8173 25.9113V19.3936H75.4546C75.8532 19.3936 76.1722 19.0548 76.1722 18.6761V14.8293C76.1722 14.6299 76.0924 14.4506 75.9529 14.331C75.8134 14.1914 75.634 14.1117 75.4347 14.1117H68.7974V7.59402H68.8173Z" fill="white"/>
<path d="M59.9082 28.9806C65.1104 30.1565 73.7807 31.0136 78.5444 25.3928C85.2415 17.5198 77.0894 9.08862 77.0894 9.08862C79.84 14.0915 79.2221 20.2106 76.2523 23.9577C73.6412 27.2664 65.6884 29.5387 59.9082 28.9806Z" fill="white"/>
<path d="M59.9077 28.981C57.3565 28.4029 55.6423 27.7651 55.6423 27.7651C56.7784 28.4428 58.2534 28.8215 59.9077 28.981Z" fill="white"/>
<path d="M86.8944 0C90.3824 8.05245 88.8277 17.7592 82.2502 24.3367C74.9751 31.6119 63.8532 32.748 55.4021 27.7052C55.4021 27.7052 75.5332 41.219 88.4092 25.433C89.4058 24.2172 90.203 23.0013 90.8209 21.7855C89.7247 23.7587 88.7679 24.9945 88.7679 24.9945C95.0465 14.5303 90.1233 4.68397 86.8944 0Z" fill="white"/>
<path d="M70.9098 4.5445C65.7076 3.36852 57.0373 2.51146 52.2736 8.13223C45.5765 16.0053 53.7286 24.4364 53.7286 24.4364C50.978 19.4336 51.5959 13.3145 54.5658 9.56731C57.1569 6.27856 65.1097 3.98641 70.9098 4.5445Z" fill="white"/>
<path d="M70.9097 4.54443C73.4609 5.12246 75.1751 5.76027 75.1751 5.76027C74.039 5.10252 72.564 4.70389 70.9097 4.54443Z" fill="white"/>
<path d="M43.9024 33.5453C40.4143 25.4929 41.969 15.7861 48.5465 9.20858C55.8216 1.93347 66.9435 0.797362 75.3946 5.84011C75.3946 5.84011 55.2635 -7.67366 42.3875 8.11233C41.391 9.32817 40.5937 10.544 39.9758 11.7598C41.072 9.7866 42.0288 8.55083 42.0288 8.55083C35.7503 18.9951 40.6734 28.8414 43.9024 33.5453Z" fill="white"/>
</svg>
