<svg width="36" height="34" viewBox="0 0 36 34" fill="none" xmlns="http://www.w3.org/2000/svg">
<path d="M10.4488 5.40636L9.2991 3.53064C6.9099 4.99496 4.95234 7.0876 3.6385 9.58152L5.58418 10.6067C6.71454 8.46304 8.39666 6.66476 10.4488 5.40636ZM8.3663 2.08216L7.21174 0.209521C4.23514 2.04432 1.7971 4.65924 0.161621 7.77224L2.10906 8.79568C3.56194 6.0316 5.72542 3.7106 8.3663 2.08216ZM29.8748 10.5588L31.8179 9.52652C30.4869 7.02292 28.506 4.92896 26.0886 3.46992L24.9521 5.35356C27.0289 6.60712 28.7313 8.40716 29.8748 10.5588ZM33.3495 8.74728L35.2939 7.71768C33.6408 4.59456 31.179 1.97832 28.1747 0.151001L27.0311 2.03024C29.6971 3.65208 31.8817 5.9744 33.3495 8.74728ZM29.5167 16.9036C29.5167 10.3665 24.2169 5.06712 17.6798 5.06712C11.1427 5.06712 5.84466 10.3665 5.84466 16.9036C5.84466 23.4398 11.1423 28.7396 17.6793 28.7396C24.2164 28.7396 29.5167 23.4402 29.5167 16.9036ZM14.8743 16.9036C14.8743 15.3548 16.1305 14.0986 17.6793 14.0986C19.2286 14.0986 20.4843 15.3548 20.4843 16.9036C20.4843 18.4524 19.2286 19.7077 17.6793 19.7077C16.131 19.7077 14.8743 18.4524 14.8743 16.9036ZM35.8381 19.419C35.8381 18.2847 34.9185 17.366 33.7842 17.366C32.6499 17.366 31.7312 18.2847 31.7312 19.419C31.7312 20.2427 32.2187 20.948 32.9187 21.275C33.2611 25.0748 32.209 27.6448 25.3323 29.2618V27.5951C23.1745 29.1439 20.5327 30.06 17.6793 30.06C14.8255 30.06 12.1833 29.143 10.0251 27.5938V31.3545C10.0251 32.7268 11.148 33.8493 12.5199 33.8493H22.8379C24.1548 33.8493 25.239 32.8144 25.3239 31.5177C34.156 29.5628 35.487 25.6697 35.0866 20.9951C35.542 20.618 35.8381 20.0557 35.8381 19.419Z" fill="white"/>
</svg>
