<svg width="42" height="34" viewBox="0 0 42 34" fill="none" xmlns="http://www.w3.org/2000/svg">
<path d="M33.4077 11.6758C35.3437 11.6758 37.1477 12.1598 38.7757 13.0398C39.5677 9.65184 38.6437 5.91184 36.0037 3.27184C33.9797 1.24784 31.2957 0.23584 28.6117 0.23584C25.9717 0.23584 23.2877 1.24784 21.2637 3.27184L19.5477 4.98784L17.8317 3.27184C15.8077 1.24784 13.1237 0.23584 10.4397 0.23584C7.71167 0.23584 4.93967 1.29184 2.91567 3.44784C-1.00033 7.58384 -0.780332 14.1398 3.26767 18.1878L18.3157 33.2358C19.0197 33.9398 20.1197 33.9398 20.7797 33.2358L24.1237 29.8918C22.7157 27.9998 21.9237 25.6678 21.9237 23.1598C21.9237 16.8238 27.0717 11.6758 33.4077 11.6758Z" fill="white"/>
<path d="M33.3636 14.6237C28.6556 14.6237 24.8276 18.4517 24.8276 23.1597C24.8276 27.8677 28.6556 31.6957 33.3636 31.6957C38.0716 31.6957 41.8997 27.8677 41.8997 23.1597C41.8997 18.4517 38.0716 14.6237 33.3636 14.6237ZM38.1156 24.1277C38.1156 24.4357 37.8516 24.6997 37.5436 24.6997H34.9916V27.2517C34.9916 27.5597 34.7276 27.8237 34.4196 27.8237H32.4396C32.1316 27.8237 31.8676 27.5597 31.8676 27.2517V24.6997H29.3156C29.0076 24.6997 28.7436 24.4357 28.7436 24.1277V22.1477C28.7436 21.8397 29.0076 21.5757 29.3156 21.5757H31.8676V19.0237C31.8676 18.7157 32.1316 18.4517 32.4396 18.4517H34.4196C34.7276 18.4517 34.9916 18.7157 34.9916 19.0237V21.5757H37.5436C37.8516 21.5757 38.1156 21.8397 38.1156 22.1477V24.1277Z" fill="white"/>
</svg>
