<svg width="44" height="44" viewBox="0 0 44 44" fill="none" xmlns="http://www.w3.org/2000/svg">
<path d="M20.6357 31.1079L16.3237 34.3639L15.5317 38.1039L21.2077 33.7479L20.6357 31.1079Z" fill="white"/>
<path d="M21.516 35.1559L16.28 39.1599L18.876 41.6679C18.92 41.7119 18.964 41.7119 19.008 41.7119C19.052 41.7119 19.096 41.7119 19.14 41.6679L22.132 38.4119C22.176 38.3679 22.176 38.2799 22.176 38.2359L21.516 35.1559Z" fill="white"/>
<path d="M17.8641 27.5438L16.7641 32.4278L20.2841 29.7438L19.8001 27.6318L21.2961 25.7838C21.3401 25.7398 21.3401 25.6518 21.3401 25.5638L20.3721 23.1878C20.3281 23.0998 20.2841 23.0558 20.1961 23.0558H17.3361C17.2481 23.0558 17.2041 23.0998 17.1601 23.1878L16.3681 25.5198C16.3241 25.6078 16.3681 25.6958 16.4121 25.7398L17.8641 27.5438Z" fill="white"/>
<path d="M18.8323 0.352051C13.2003 0.352051 8.62427 4.97205 8.62427 10.6041C8.62427 16.2361 13.2003 20.8561 18.8323 20.8561C24.4643 20.8561 29.0843 16.2801 29.0843 10.6041C29.0843 4.92805 24.5083 0.352051 18.8323 0.352051ZM26.5763 10.6041C26.5763 14.8721 23.1003 18.3481 18.8323 18.3481C14.5643 18.3481 11.0883 14.8721 11.0883 10.6041C11.0883 9.94405 11.1763 9.32805 11.3523 8.71205C12.2763 9.15205 13.9043 9.81205 15.7963 9.81205C17.1603 9.81205 18.6123 9.46005 20.0203 8.49205C20.1523 8.40405 23.5843 5.94005 26.2683 8.40405C26.4883 9.10805 26.5763 9.85605 26.5763 10.6041Z" fill="white"/>
<path d="M14.5644 41.0078L10.1644 23.0558H9.81242C5.28042 23.0558 1.62842 26.7078 1.62842 31.2398L1.71642 34.3198C5.10442 37.7518 9.59242 40.1718 14.5644 41.0078Z" fill="white"/>
<path d="M25.7397 35.596C25.7397 30.888 29.5677 27.104 34.2317 27.104C34.2757 27.104 34.3197 27.104 34.3197 27.104C32.9117 24.684 30.2717 23.1 27.2797 23.1H27.0157L23.0117 40.876C24.3317 40.612 25.5637 40.216 26.7957 39.776C26.1357 38.5 25.7397 37.092 25.7397 35.596Z" fill="white"/>
<path d="M34.7164 28.38C30.5364 28.38 27.1484 31.768 27.1484 35.948C27.1484 40.128 30.5364 43.516 34.7164 43.516C38.8964 43.516 42.2844 40.128 42.2844 35.948C42.2844 31.768 38.8964 28.38 34.7164 28.38ZM38.2364 34.98L36.6524 36.52L37.0044 38.676C37.0044 38.764 36.9604 38.896 36.8724 38.94C36.8284 38.984 36.7844 38.984 36.6964 38.984C36.6524 38.984 36.6084 38.984 36.5644 38.94L34.6284 37.928L32.6924 38.94C32.6044 38.984 32.4724 38.984 32.3844 38.896C32.2964 38.852 32.2524 38.72 32.2524 38.632L32.6044 36.476L31.0204 34.936C30.9324 34.848 30.9324 34.76 30.9324 34.628C30.9764 34.54 31.0644 34.452 31.1524 34.452L33.3084 34.144L34.2764 32.164C34.3644 31.988 34.7164 31.988 34.8044 32.164L35.7724 34.144L37.9284 34.452C38.0164 34.452 38.1484 34.54 38.1484 34.628C38.3684 34.76 38.3244 34.892 38.2364 34.98Z" fill="white"/>
</svg>
