<svg width="44" height="44" viewBox="0 0 44 44" fill="none" xmlns="http://www.w3.org/2000/svg">
<path d="M18.6025 29.4553H21.9118L27.56 16.5248V14.5434H16.8459V17.1989H24.2098L18.6025 29.4553Z" fill="white"/>
<path d="M25.7818 35.9535C24.5907 36.2666 23.3642 36.4249 22.1326 36.4245C18.5862 36.3898 15.174 35.064 12.5345 32.6951C9.89499 30.3263 8.20916 27.0768 7.79249 23.5548L7.65465 22.2797H11.1047C11.1547 22.2794 11.2037 22.2649 11.2458 22.238C11.288 22.211 11.3216 22.1727 11.3428 22.1274C11.3641 22.0821 11.3721 22.0317 11.3658 21.9821C11.3596 21.9325 11.3394 21.8856 11.3077 21.847L6.42168 15.9462C6.39709 15.9162 6.36612 15.8919 6.33103 15.8753C6.29593 15.8587 6.25757 15.85 6.21873 15.85C6.17989 15.85 6.14153 15.8587 6.10644 15.8753C6.07134 15.8919 6.04038 15.9162 6.01579 15.9462C5.20401 16.9265 2.18281 20.591 1.14127 21.8584C1.10902 21.8973 1.08857 21.9445 1.08234 21.9946C1.07611 22.0447 1.08437 22.0955 1.10613 22.141C1.12789 22.1865 1.16224 22.2249 1.20512 22.2515C1.248 22.2781 1.2976 22.2919 1.34806 22.2911L3.31625 22.2797H4.38074L4.46117 23.3442C4.67077 26.0644 5.5048 28.6996 6.89845 31.0451C8.29209 33.3905 10.2078 35.383 12.4967 36.8677C14.7856 38.3524 17.3861 39.2893 20.0959 39.6056C22.8058 39.9219 25.5521 39.6091 28.1214 38.6914C27.1771 37.9332 26.3835 37.0045 25.7818 35.9535Z" fill="white"/>
<path d="M36.5498 21.5477C37.7236 21.8261 38.8351 22.3208 39.8276 23.0066C39.8505 22.6735 39.8582 22.3365 39.8582 21.9996C39.8575 17.2988 37.9898 12.7907 34.6659 9.46678C31.3419 6.14283 26.8338 4.27516 22.1331 4.27448L22.1407 7.57903C25.8859 7.58138 29.4834 9.04022 32.1725 11.6471C34.8615 14.2539 36.4313 17.8044 36.5498 21.5477Z" fill="white"/>
<path d="M37.6182 32.0659C37.6266 31.5671 37.6574 29.9947 37.6742 29.3641L35.9309 32.0659H37.6182Z" fill="white"/>
<path d="M34.2712 22.425C32.5605 22.425 30.8882 22.9323 29.4659 23.8827C28.0435 24.8331 26.9349 26.1839 26.2802 27.7644C25.6256 29.3449 25.4543 31.084 25.788 32.7618C26.1218 34.4396 26.9455 35.9807 28.1552 37.1904C29.3648 38.4 30.906 39.2238 32.5838 39.5575C34.2616 39.8912 36.0007 39.72 37.5812 39.0653C39.1616 38.4107 40.5125 37.302 41.4629 35.8797C42.4133 34.4573 42.9205 32.785 42.9205 31.0743C42.9207 29.9384 42.6971 28.8136 42.2625 27.7642C41.8278 26.7147 41.1907 25.7612 40.3875 24.958C39.5843 24.1548 38.6308 23.5177 37.5813 23.0831C36.5319 22.6485 35.4071 22.4248 34.2712 22.425ZM33.8844 35.1047H28.2844V33.8575L30.266 31.8563C30.8406 31.2649 31.2218 30.8529 31.3984 30.6259C31.5511 30.4364 31.6774 30.2271 31.7739 30.0037C31.8472 29.818 31.8852 29.6203 31.886 29.4207C31.8961 29.3022 31.8802 29.1829 31.8395 29.0711C31.7989 28.9593 31.7344 28.8577 31.6506 28.7732C31.4695 28.6249 31.2398 28.549 31.006 28.5602C30.7102 28.561 30.4186 28.6301 30.1539 28.7621C29.8392 28.9205 29.5447 29.1163 29.2767 29.345L29.2234 29.3899L28.234 28.2211L28.2873 28.1763C28.5855 27.9091 28.9105 27.6733 29.257 27.4728C29.524 27.3318 29.8074 27.2245 30.1007 27.1533C30.4361 27.076 30.7795 27.0384 31.1237 27.0412C31.5797 27.0326 32.0317 27.1265 32.4466 27.3158C32.8136 27.4835 33.1255 27.7517 33.3463 28.0894C33.5613 28.4295 33.6724 28.825 33.6658 29.2273C33.6683 29.5831 33.6027 29.936 33.4724 30.2671C33.3218 30.6235 33.1197 30.9559 32.8726 31.2537C32.4376 31.7617 31.9665 32.2376 31.4628 32.6775L30.5099 33.5772H33.8844V35.1047ZM40.3084 33.4875H39.3666V35.1075H37.6149V33.4875H34.2796V32.2459L34.2936 32.2291L37.7382 27.1561H39.3666V32.0665H40.3084V33.4875Z" fill="white"/>
</svg>
