<svg width="40" height="42" viewBox="0 0 40 42" fill="none" xmlns="http://www.w3.org/2000/svg">
<path d="M38.2199 18.9673C38.6101 19.2708 38.9242 19.661 39.1373 20.107C39.3504 20.5531 39.4566 21.0426 39.4475 21.5369V22.5577C39.4475 23.7677 39.4475 24.9821 39.4475 26.1921C39.4514 26.76 39.3038 27.3186 39.02 27.8105C38.7362 28.3024 38.3263 28.7097 37.8327 28.9905C37.0201 29.4963 36.0916 29.7856 35.1355 29.8309H34.9023C34.3487 29.8375 33.8059 29.6768 33.3451 29.3698C32.8842 29.0628 32.5268 28.6239 32.3195 28.1105C32.079 27.5528 31.939 26.9569 31.9059 26.3505V26.3241L31.9983 20.6041C32.0565 20.0173 32.2843 19.4602 32.6539 19.0007C33.0235 18.5413 33.5189 18.1994 34.0795 18.0169C34.0567 15.9948 33.5705 14.0049 32.6583 12.2001C30.3923 7.76047 26.7931 5.16007 21.9575 4.43407C18.3352 3.89604 14.6464 4.80096 11.6842 6.95425C8.72213 9.10755 6.72329 12.3372 6.11752 15.9489C6.02651 16.5508 5.97214 17.1576 5.95472 17.7661C5.95472 17.8541 5.95472 17.9421 5.95472 18.0257C6.42317 18.1727 6.84716 18.4351 7.18774 18.7888C7.52833 19.1425 7.7746 19.576 7.90392 20.0497C8.04525 20.5087 8.1179 20.9862 8.11952 21.4665C8.11952 23.1693 8.11952 24.7225 8.11952 26.2053C8.10911 26.7124 8.0231 27.2151 7.86432 27.6969C7.67698 28.3067 7.30491 28.8432 6.79952 29.2325C6.96705 31.2304 7.87833 33.0926 9.35307 34.4509C10.8278 35.8091 12.7586 36.5644 14.7635 36.5673H15.8063C15.9872 36.2485 16.2496 35.9836 16.5666 35.7996C16.8836 35.6156 17.2438 35.5191 17.6103 35.5201H21.5923C22.1431 35.5201 22.6714 35.7389 23.0608 36.1284C23.4503 36.5178 23.6691 37.0461 23.6691 37.5969V39.7969C23.6691 40.3477 23.4503 40.8759 23.0608 41.2654C22.6714 41.6549 22.1431 41.8737 21.5923 41.8737H17.6103C17.2419 41.8712 16.8809 41.7704 16.5645 41.5817C16.2481 41.3929 15.9879 41.1231 15.8107 40.8001H14.7679C11.6492 40.795 8.65036 39.5979 6.38537 37.454C4.12039 35.3101 2.76058 32.3814 2.58432 29.2677C2.3659 29.1574 2.15693 29.0294 1.95952 28.8849C1.54293 28.6083 1.19881 28.2358 0.9561 27.7986C0.713386 27.3614 0.579167 26.8723 0.564722 26.3725C0.538322 24.7753 0.538322 23.0901 0.564722 21.3609C0.570603 20.892 0.683453 20.4307 0.894671 20.0121C1.10589 19.5935 1.4099 19.2286 1.78352 18.9453C1.61431 14.2014 3.32169 9.58196 6.53552 6.08847C9.05146 3.21167 12.4601 1.26253 16.2155 0.553273C23.2555 -0.793127 29.2175 1.23967 33.9079 6.59887C36.8867 10.0221 38.3431 14.1845 38.2199 18.9673ZM27.2199 22.9273C27.0521 23.5432 26.8051 24.1348 26.4851 24.6873L27.3167 25.8709C27.4645 26.082 27.5332 26.3384 27.5107 26.5951C27.4881 26.8518 27.3758 27.0924 27.1935 27.2745L26.3399 28.1281C26.1578 28.3104 25.9173 28.4227 25.6606 28.4452C25.4038 28.4678 25.1474 28.3991 24.9363 28.2513L23.7395 27.4417C23.1872 27.7619 22.5956 28.0089 21.9795 28.1765L21.7287 29.6021C21.6842 29.8558 21.5518 30.0857 21.3547 30.2514C21.1575 30.4172 20.9083 30.5082 20.6507 30.5085H19.4275C19.17 30.5082 18.9207 30.4172 18.7236 30.2514C18.5264 30.0857 18.394 29.8558 18.3495 29.6021L18.0987 28.1765C17.4827 28.0088 16.8911 27.7618 16.3387 27.4417L15.1595 28.2733C14.9484 28.4211 14.692 28.4898 14.4353 28.4672C14.1786 28.4447 13.938 28.3324 13.7559 28.1501L12.9023 27.2965C12.72 27.1144 12.6077 26.8738 12.5852 26.6171C12.5626 26.3604 12.6313 26.104 12.7791 25.8929L13.6107 24.7093C13.2909 24.1568 13.0439 23.5652 12.8759 22.9493L11.4503 22.6985C11.1966 22.654 10.9667 22.5216 10.801 22.3244C10.6352 22.1273 10.5442 21.878 10.5439 21.6205V20.3973C10.5442 20.1397 10.6352 19.8905 10.801 19.6933C10.9667 19.4962 11.1966 19.3638 11.4503 19.3193L12.8759 19.0685C13.0439 18.4526 13.2909 17.861 13.6107 17.3085L12.7791 16.1249C12.6313 15.9138 12.5626 15.6574 12.5852 15.4006C12.6077 15.1439 12.72 14.9034 12.9023 14.7213L13.7559 13.8677C13.9358 13.6827 14.1753 13.5671 14.432 13.5413C14.6888 13.5156 14.9465 13.5813 15.1595 13.7269L16.3431 14.5585C16.8956 14.2385 17.4872 13.9915 18.1031 13.8237L18.3539 12.3981C18.3984 12.1444 18.5308 11.9145 18.728 11.7487C18.9251 11.5829 19.1744 11.4919 19.4319 11.4917H20.6419C20.8995 11.4919 21.1487 11.5829 21.3459 11.7487C21.543 11.9145 21.6754 12.1444 21.7199 12.3981L21.9707 13.8237C22.5867 13.9913 23.1784 14.2383 23.7307 14.5585L24.9143 13.7269C25.1254 13.5791 25.3818 13.5104 25.6386 13.5329C25.8953 13.5554 26.1358 13.6677 26.3179 13.8501L27.1715 14.7037C27.3538 14.8858 27.4661 15.1263 27.4887 15.383C27.5112 15.6398 27.4425 15.8962 27.2947 16.1073L26.4631 17.2909C26.7832 17.8433 27.0302 18.4349 27.1979 19.0509L28.6235 19.3017C28.8772 19.3462 29.1071 19.4786 29.2729 19.6757C29.4387 19.8729 29.5297 20.1221 29.5299 20.3797V21.5897C29.5297 21.8472 29.4387 22.0965 29.2729 22.2936C29.1071 22.4908 28.8772 22.6232 28.6235 22.6677L27.2199 22.9273ZM23.3171 21.0001C23.3171 20.35 23.1244 19.7145 22.7632 19.174C22.402 18.6335 21.8887 18.2122 21.2881 17.9635C20.6875 17.7147 20.0267 17.6496 19.3891 17.7764C18.7515 17.9032 18.1659 18.2163 17.7062 18.676C17.2465 19.1356 16.9335 19.7213 16.8067 20.3589C16.6799 20.9964 16.7449 21.6573 16.9937 22.2579C17.2425 22.8585 17.6638 23.3718 18.2043 23.7329C18.7448 24.0941 19.3803 24.2869 20.0303 24.2869C20.902 24.2869 21.738 23.9406 22.3544 23.3242C22.9708 22.7078 23.3171 21.8718 23.3171 21.0001Z" fill="white"/>
</svg>
