<svg width="30" height="44" viewBox="0 0 30 44" fill="none" xmlns="http://www.w3.org/2000/svg">
<path d="M4.91457 -0.00280503C4.91457 -0.00280503 3.81009 -0.00881953 2.67479 0.558834C1.53948 1.12649 0.333496 2.44615 0.333496 4.58504C0.333496 6.72393 1.53948 8.04359 2.67479 8.61125C3.81009 9.1789 4.91457 9.16612 4.91457 9.16612H28.747C28.7785 9.1655 28.8103 9.16325 28.8417 9.15936C28.9628 9.14654 29.0801 9.10974 29.1868 9.05109C29.24 9.02009 29.2898 8.98382 29.3357 8.94283C29.3831 8.90221 29.4261 8.85686 29.4643 8.80749C29.5009 8.75889 29.5327 8.70675 29.559 8.65185C29.6138 8.54208 29.646 8.42243 29.6537 8.29998C29.6553 8.23879 29.6508 8.17758 29.6402 8.11728C29.6371 8.08776 29.6326 8.0584 29.6267 8.02931C29.6191 7.99955 29.6101 7.9702 29.5997 7.94135C29.5692 7.85413 29.526 7.77201 29.4711 7.69774C29.452 7.67419 29.4316 7.65161 29.4102 7.63008C29.3692 7.58509 29.3239 7.54429 29.2749 7.50828C29.1514 7.41773 29.0071 7.35957 28.8553 7.33911C28.8194 7.33471 28.7833 7.33246 28.7471 7.33235C28.7471 7.33235 28.0241 7.32272 27.326 6.97372C26.628 6.62468 25.9997 6.11282 25.9997 4.58504C25.9997 3.05726 26.628 2.5454 27.326 2.19638C28.024 1.84737 28.747 1.83098 28.747 1.83098C29.9693 1.83074 29.9693 -0.00304263 28.747 -0.00280503H4.91457ZM4.91457 1.83098H24.9819C24.3126 2.75035 24.1659 3.66702 24.1659 4.58504C24.1659 5.50035 24.3189 6.41702 24.9751 7.33233H4.91457C4.91457 7.33233 4.19159 7.3227 3.49356 6.9737C2.79553 6.62468 2.16728 6.11282 2.16728 4.58504C2.16728 3.05726 2.79553 2.5454 3.49356 2.19638C4.19159 1.84737 4.91457 1.83098 4.91457 1.83098Z" fill="white"/>
<path d="M0.333276 4.58484V33.9186C0.333276 33.9186 0.320491 35.0231 0.888148 36.1584C1.4558 37.2937 2.77547 38.4997 4.91435 38.4997H25.0792C25.0792 38.4997 26.1905 38.5125 27.3258 37.9448C28.4611 37.3772 29.6671 36.0575 29.6671 33.9186V8.25241H27.8333V33.9186C27.8333 35.4464 27.205 35.9583 26.507 36.3073C25.809 36.6563 25.0792 36.6659 25.0792 36.6659H4.91435C3.38658 36.6659 2.87471 36.0377 2.5257 35.3396C2.17668 34.6416 2.16706 33.9186 2.16706 33.9186V4.58484H0.333276Z" fill="white"/>
<path d="M4.00124 37.5864V43.081C4.00032 43.2377 4.03958 43.392 4.11526 43.5292C4.19094 43.6664 4.30051 43.7819 4.43353 43.8647C4.56654 43.9474 4.71856 43.9948 4.87506 44.0021C5.03157 44.0094 5.18734 43.9765 5.32752 43.9065L8.58231 42.2758L11.8371 43.9065C11.9773 43.9765 12.1331 44.0094 12.2896 44.0021C12.4461 43.9948 12.5981 43.9474 12.7311 43.8646C12.8641 43.7819 12.9737 43.6664 13.0494 43.5292C13.125 43.392 13.1643 43.2377 13.1634 43.081V37.5864H11.3296V41.5991L8.99509 40.4285C8.86707 40.3639 8.72569 40.3303 8.58231 40.3303C8.43894 40.3303 8.29756 40.3639 8.16954 40.4285L5.83502 41.5923V37.5864H4.00124Z" fill="white"/>
<path d="M14.9964 12.8337C9.94463 12.8337 5.83423 16.9509 5.83423 22.0027C5.83423 27.0544 9.94463 31.1648 14.9964 31.1648C20.0481 31.1648 24.1653 27.0544 24.1653 22.0027C24.1653 16.9509 20.0481 12.8337 14.9964 12.8337ZM14.9964 14.6675C19.0573 14.6675 22.3315 17.9417 22.3315 22.0027C22.3315 26.0636 19.0573 29.331 14.9964 29.331C10.9354 29.331 7.66125 26.0636 7.66125 22.0027C7.66125 17.9417 10.9354 14.6675 14.9964 14.6675Z" fill="white"/>
<path d="M12.2229 13.5914C9.69406 19.3331 9.9396 25.0083 12.2702 30.4271L13.9551 29.703C11.786 24.6597 11.5658 19.6313 13.901 14.329L12.2229 13.5914Z" fill="white"/>
<path d="M17.778 13.5914L16.0998 14.329C18.4825 19.7127 18.1511 24.7279 16.0254 29.7098L17.7171 30.4271C19.9944 25.0897 20.3605 19.4268 17.778 13.5914Z" fill="white"/>
<path d="M21.3436 16.8596C15.7091 19.3745 12.6234 19.0059 8.49358 16.9273L7.6748 18.5648C12.0916 20.7879 16.1419 21.1879 22.0947 18.531L21.3436 16.8596Z" fill="white"/>
<path d="M14.9964 23.8434C12.554 23.8438 10.1121 24.3893 7.7019 25.4809L8.45301 27.1523C12.8552 25.1585 17.131 25.16 21.5331 27.1523L22.291 25.4809C19.8807 24.3901 17.4389 23.843 14.9964 23.8434Z" fill="white"/>
<path d="M4.91421 3.66455C4.67103 3.66455 4.43782 3.76115 4.26587 3.9331C4.09392 4.10505 3.99731 4.33827 3.99731 4.58144C3.99731 4.82462 4.09392 5.05783 4.26587 5.22978C4.43782 5.40173 4.67103 5.49834 4.91421 5.49834H21.4115C21.5319 5.49834 21.6511 5.47462 21.7624 5.42854C21.8736 5.38246 21.9747 5.31493 22.0598 5.22978C22.145 5.14464 22.2125 5.04356 22.2586 4.93232C22.3047 4.82108 22.3284 4.70185 22.3284 4.58144C22.3284 4.46104 22.3047 4.34181 22.2586 4.23056C22.2125 4.11932 22.145 4.01824 22.0598 3.9331C21.9747 3.84796 21.8736 3.78042 21.7624 3.73435C21.6511 3.68827 21.5319 3.66455 21.4115 3.66455H4.91421Z" fill="white"/>
</svg>
