<svg width="30" height="30" viewBox="0 0 30 30" fill="none" xmlns="http://www.w3.org/2000/svg">
<circle cx="15" cy="15" r="15" fill="#184E61"/>
<path d="M15.7776 14.5015L14.815 14.2879C14.4489 14.2044 14.0274 14.0942 14.0274 13.749C14.0274 13.403 14.3231 13.1613 14.8568 13.1613C15.9325 13.1613 15.8342 13.9006 16.3683 13.9006C16.6493 13.9006 16.8953 13.7353 16.8953 13.4512C16.8953 12.7882 15.8342 12.2907 14.9341 12.2907C13.957 12.2907 12.9165 12.7057 12.9165 13.8108C12.9165 14.3431 13.1066 14.9093 14.154 15.1719L15.4545 15.4966C15.8481 15.5936 15.9466 15.815 15.9466 16.0148C15.9466 16.347 15.6167 16.6715 15.019 16.6715C13.8514 16.6715 14.0134 15.773 13.3877 15.773C13.1066 15.773 12.9026 15.9666 12.9026 16.2429C12.9026 16.7817 13.5567 17.5006 15.019 17.5006C16.4102 17.5006 17.0995 16.8301 17.0995 15.932C17.0995 15.3521 16.8322 14.7365 15.7776 14.5015Z" fill="white"/>
<path d="M15 8C11.1346 8 8 11.1346 8 15C8 18.8654 11.1346 22 15 22C18.8654 22 22 18.8654 22 15C22 11.1346 18.8654 8 15 8ZM18.6445 18.6342C18.1843 19.0946 17.5727 19.3477 16.922 19.3477C16.5005 19.3477 16.0878 19.2381 15.7232 19.0318C15.4866 19.0738 15.2443 19.0959 15.0025 19.0959C14.4468 19.0959 13.9076 18.987 13.4004 18.7719C12.9099 18.5652 12.47 18.2681 12.0917 17.8901C11.7139 17.5122 11.4172 17.0723 11.2101 16.582C10.9952 16.0744 10.8865 15.5356 10.8865 14.9798C10.8865 14.7418 10.9078 14.5035 10.9484 14.2704C10.7484 13.9105 10.6419 13.5034 10.6419 13.089C10.6419 12.4382 10.8954 11.8263 11.3555 11.3662C11.8157 10.9058 12.4277 10.6523 13.0785 10.6523C13.4771 10.6523 13.871 10.7518 14.2211 10.938C14.2218 10.9379 14.2225 10.9379 14.2231 10.9376C14.4783 10.8887 14.7406 10.864 15.0025 10.864C15.558 10.864 16.0971 10.9729 16.6043 11.1875C17.0943 11.3948 17.5347 11.6915 17.9124 12.0694C18.2906 12.4474 18.5873 12.8876 18.7946 13.3777C19.0095 13.8852 19.1182 14.4242 19.1182 14.9798C19.1182 15.2303 19.0946 15.481 19.0497 15.7259C19.2511 16.0871 19.3582 16.4957 19.3582 16.9114C19.3581 17.5622 19.1049 18.1742 18.6445 18.6342Z" fill="white"/>
</svg>
