<svg width="323" height="262" viewBox="0 0 323 262" fill="none" xmlns="http://www.w3.org/2000/svg">
<g filter="url(#filter0_d)">
<path d="M293 28.6003L293 214C293 219.523 288.523 224 283 224L40 224C34.4772 224 30 219.542 30 214.019L30 76.005C30 73.3382 32.1053 71.1391 34.7696 71.252C62.3609 72.4212 76.7068 95.5612 95.5019 100.769C115.351 103.769 113.366 78.7693 140.658 72.7696C165.47 65.2704 187.304 88.2693 193.755 77.5038C209.263 42.6059 229.503 16.5146 288.681 23.6949C291.149 23.9944 293 26.114 293 28.6003Z" fill="#184E61"/>
</g>
<defs>
<filter id="filter0_d" x="0" y="0.499977" width="323" height="261.5" filterUnits="userSpaceOnUse" color-interpolation-filters="sRGB">
<feFlood flood-opacity="0" result="BackgroundImageFix"/>
<feColorMatrix in="SourceAlpha" type="matrix" values="0 0 0 0 0 0 0 0 0 0 0 0 0 0 0 0 0 0 127 0" result="hardAlpha"/>
<feOffset dy="8"/>
<feGaussianBlur stdDeviation="15"/>
<feColorMatrix type="matrix" values="0 0 0 0 0.00392157 0 0 0 0 0.0431373 0 0 0 0 0.0980392 0 0 0 0.06 0"/>
<feBlend mode="normal" in2="BackgroundImageFix" result="effect1_dropShadow"/>
<feBlend mode="normal" in="SourceGraphic" in2="effect1_dropShadow" result="shape"/>
</filter>
</defs>
</svg>
