<svg width="30" height="30" viewBox="0 0 30 30" fill="none" xmlns="http://www.w3.org/2000/svg">
<circle cx="15" cy="15" r="15" fill="#184E61"/>
<path d="M21.8574 10.0056C21.2977 10.3927 20.6781 10.6889 20.0223 10.8826C19.6704 10.4856 19.2026 10.2043 18.6823 10.0766C18.162 9.94889 17.6142 9.98101 17.1131 10.1686C16.6121 10.3562 16.1818 10.6902 15.8806 11.1255C15.5793 11.5607 15.4216 12.0762 15.4288 12.6022V13.1755C14.4018 13.2016 13.3841 12.9782 12.4664 12.5251C11.5487 12.0721 10.7595 11.4034 10.1691 10.5788C10.1691 10.5788 7.83141 15.7378 13.0912 18.0307C11.8876 18.832 10.4538 19.2338 9.00024 19.1771C14.26 22.0432 20.6886 19.1771 20.6886 12.585C20.688 12.4254 20.6724 12.2661 20.6418 12.1093C21.2383 11.5323 21.6592 10.8039 21.8574 10.0056Z" fill="white"/>
</svg>
