<svg width="30" height="30" viewBox="0 0 30 30" fill="none" xmlns="http://www.w3.org/2000/svg">
<circle cx="15" cy="15" r="15" fill="#184E61"/>
<path d="M17.8422 12.7891C18.8472 12.7891 19.8111 13.1883 20.5218 13.899C21.2324 14.6096 21.6317 15.5735 21.6317 16.5785V20.9996H19.1054V16.5785C19.1054 16.2435 18.9723 15.9222 18.7354 15.6853C18.4985 15.4485 18.1772 15.3154 17.8422 15.3154C17.5072 15.3154 17.1859 15.4485 16.949 15.6853C16.7121 15.9222 16.5791 16.2435 16.5791 16.5785V20.9996H14.0527V16.5785C14.0527 15.5735 14.452 14.6096 15.1626 13.899C15.8733 13.1883 16.8372 12.7891 17.8422 12.7891Z" fill="white" stroke="white" stroke-width="0.857143" stroke-linecap="round" stroke-linejoin="round"/>
<path d="M11.5266 13.4206H9.00024V20.9995H11.5266V13.4206Z" fill="white" stroke="white" stroke-width="0.857143" stroke-linecap="round" stroke-linejoin="round"/>
<path d="M10.2634 11.5262C10.961 11.5262 11.5266 10.9606 11.5266 10.263C11.5266 9.56538 10.961 8.99985 10.2634 8.99985C9.56578 8.99985 9.00024 9.56538 9.00024 10.263C9.00024 10.9606 9.56578 11.5262 10.2634 11.5262Z" fill="white" stroke="white" stroke-width="0.857143" stroke-linecap="round" stroke-linejoin="round"/>
</svg>
